<mxfile host="app.diagrams.net" agent="Mozilla/5.0 (Windows NT 10.0; Win64; x64) AppleWebKit/537.36 (KHTML, like Gecko) Chrome/131.0.0.0 Safari/537.36" version="25.0.1">
  <diagram name="1 oldal" id="FhZU1bRqEGuFB2vwPZmc">
    <mxGraphModel dx="1816" dy="542" grid="1" gridSize="10" guides="1" tooltips="1" connect="1" arrows="1" fold="1" page="1" pageScale="1" pageWidth="827" pageHeight="1169" math="0" shadow="0">
      <root>
        <mxCell id="0" />
        <mxCell id="1" parent="0" />
        <mxCell id="KD5gaBioyo4awNugm5Q--3" value="" style="edgeStyle=orthogonalEdgeStyle;rounded=0;orthogonalLoop=1;jettySize=auto;html=1;fillColor=#647687;strokeColor=#314354;" parent="1" source="KD5gaBioyo4awNugm5Q--1" target="KD5gaBioyo4awNugm5Q--2" edge="1">
          <mxGeometry relative="1" as="geometry" />
        </mxCell>
        <mxCell id="KD5gaBioyo4awNugm5Q--1" value="Gyomore vasutallomas(spawn/loading screen)" style="rounded=1;whiteSpace=wrap;html=1;fillColor=#647687;fontColor=#ffffff;strokeColor=#314354;" parent="1" vertex="1">
          <mxGeometry x="-50" width="200" height="60" as="geometry" />
        </mxCell>
        <mxCell id="KD5gaBioyo4awNugm5Q--6" style="edgeStyle=orthogonalEdgeStyle;rounded=0;orthogonalLoop=1;jettySize=auto;html=1;entryX=0.75;entryY=0;entryDx=0;entryDy=0;fillColor=#647687;strokeColor=#314354;" parent="1" source="KD5gaBioyo4awNugm5Q--2" target="KD5gaBioyo4awNugm5Q--4" edge="1">
          <mxGeometry relative="1" as="geometry" />
        </mxCell>
        <mxCell id="KD5gaBioyo4awNugm5Q--2" value="Szerinted kesik a vonatod?" style="rounded=0;whiteSpace=wrap;html=1;fillColor=#647687;fontColor=#ffffff;strokeColor=#314354;" parent="1" vertex="1">
          <mxGeometry x="10" y="90" width="100" height="40" as="geometry" />
        </mxCell>
        <mxCell id="KD5gaBioyo4awNugm5Q--4" value="Igen" style="rounded=1;whiteSpace=wrap;html=1;fillColor=#cce5ff;strokeColor=#36393d;" parent="1" vertex="1">
          <mxGeometry x="-50" y="170" width="90" height="40" as="geometry" />
        </mxCell>
        <mxCell id="KD5gaBioyo4awNugm5Q--17" style="edgeStyle=orthogonalEdgeStyle;rounded=0;orthogonalLoop=1;jettySize=auto;html=1;fillColor=#647687;strokeColor=#314354;" parent="1" source="KD5gaBioyo4awNugm5Q--5" target="KD5gaBioyo4awNugm5Q--9" edge="1">
          <mxGeometry relative="1" as="geometry" />
        </mxCell>
        <mxCell id="KD5gaBioyo4awNugm5Q--5" value="Nem" style="rounded=1;whiteSpace=wrap;html=1;fillColor=#cce5ff;strokeColor=#36393d;" parent="1" vertex="1">
          <mxGeometry x="60" y="170" width="90" height="40" as="geometry" />
        </mxCell>
        <mxCell id="KD5gaBioyo4awNugm5Q--8" style="edgeStyle=orthogonalEdgeStyle;rounded=0;orthogonalLoop=1;jettySize=auto;html=1;entryX=0.656;entryY=0.075;entryDx=0;entryDy=0;entryPerimeter=0;fillColor=#647687;strokeColor=#314354;" parent="1" source="KD5gaBioyo4awNugm5Q--2" target="KD5gaBioyo4awNugm5Q--5" edge="1">
          <mxGeometry relative="1" as="geometry" />
        </mxCell>
        <mxCell id="KD5gaBioyo4awNugm5Q--19" style="edgeStyle=orthogonalEdgeStyle;rounded=0;orthogonalLoop=1;jettySize=auto;html=1;fillColor=#647687;strokeColor=#314354;" parent="1" source="KD5gaBioyo4awNugm5Q--9" target="KD5gaBioyo4awNugm5Q--18" edge="1">
          <mxGeometry relative="1" as="geometry" />
        </mxCell>
        <mxCell id="m51ZHN8KOSUC9soQgLNm-27" style="edgeStyle=orthogonalEdgeStyle;rounded=0;orthogonalLoop=1;jettySize=auto;html=1;exitX=0;exitY=0.5;exitDx=0;exitDy=0;" edge="1" parent="1" source="KD5gaBioyo4awNugm5Q--9">
          <mxGeometry relative="1" as="geometry">
            <mxPoint x="-10" y="265.04761904761904" as="targetPoint" />
          </mxGeometry>
        </mxCell>
        <mxCell id="KD5gaBioyo4awNugm5Q--9" value="Play MAV utastajekoztato(random keses 5-120 percig)" style="rounded=1;whiteSpace=wrap;html=1;fillColor=#647687;fontColor=#ffffff;strokeColor=#314354;" parent="1" vertex="1">
          <mxGeometry x="-10" y="235" width="130" height="60" as="geometry" />
        </mxCell>
        <mxCell id="KD5gaBioyo4awNugm5Q--16" style="edgeStyle=orthogonalEdgeStyle;rounded=0;orthogonalLoop=1;jettySize=auto;html=1;entryX=0.494;entryY=0.05;entryDx=0;entryDy=0;entryPerimeter=0;fillColor=#647687;strokeColor=#314354;" parent="1" source="KD5gaBioyo4awNugm5Q--4" target="KD5gaBioyo4awNugm5Q--9" edge="1">
          <mxGeometry relative="1" as="geometry" />
        </mxCell>
        <mxCell id="KD5gaBioyo4awNugm5Q--23" value="" style="edgeStyle=orthogonalEdgeStyle;rounded=0;orthogonalLoop=1;jettySize=auto;html=1;fillColor=#647687;strokeColor=#314354;" parent="1" source="KD5gaBioyo4awNugm5Q--18" target="KD5gaBioyo4awNugm5Q--22" edge="1">
          <mxGeometry relative="1" as="geometry" />
        </mxCell>
        <mxCell id="KD5gaBioyo4awNugm5Q--18" value="Megjon a vonat, erkezes Gyorbe" style="rounded=1;whiteSpace=wrap;html=1;fillColor=#647687;fontColor=#ffffff;strokeColor=#314354;" parent="1" vertex="1">
          <mxGeometry y="320" width="120" height="60" as="geometry" />
        </mxCell>
        <mxCell id="m51ZHN8KOSUC9soQgLNm-3" value="" style="edgeStyle=orthogonalEdgeStyle;rounded=0;orthogonalLoop=1;jettySize=auto;html=1;fillColor=#647687;strokeColor=#314354;" edge="1" parent="1" source="KD5gaBioyo4awNugm5Q--22" target="m51ZHN8KOSUC9soQgLNm-2">
          <mxGeometry relative="1" as="geometry" />
        </mxCell>
        <mxCell id="m51ZHN8KOSUC9soQgLNm-5" value="" style="edgeStyle=orthogonalEdgeStyle;rounded=0;orthogonalLoop=1;jettySize=auto;html=1;fillColor=#647687;strokeColor=#314354;" edge="1" parent="1" source="KD5gaBioyo4awNugm5Q--22" target="m51ZHN8KOSUC9soQgLNm-4">
          <mxGeometry relative="1" as="geometry" />
        </mxCell>
        <mxCell id="m51ZHN8KOSUC9soQgLNm-7" value="" style="edgeStyle=orthogonalEdgeStyle;rounded=0;orthogonalLoop=1;jettySize=auto;html=1;fillColor=#647687;strokeColor=#314354;exitX=1;exitY=1;exitDx=0;exitDy=0;" edge="1" parent="1" source="KD5gaBioyo4awNugm5Q--22" target="m51ZHN8KOSUC9soQgLNm-6">
          <mxGeometry relative="1" as="geometry" />
        </mxCell>
        <mxCell id="m51ZHN8KOSUC9soQgLNm-8" style="edgeStyle=orthogonalEdgeStyle;rounded=0;orthogonalLoop=1;jettySize=auto;html=1;exitX=0;exitY=1;exitDx=0;exitDy=0;entryX=0.5;entryY=0;entryDx=0;entryDy=0;fillColor=#647687;strokeColor=#314354;" edge="1" parent="1" source="KD5gaBioyo4awNugm5Q--22" target="m51ZHN8KOSUC9soQgLNm-9">
          <mxGeometry relative="1" as="geometry">
            <mxPoint x="-30" y="520" as="targetPoint" />
          </mxGeometry>
        </mxCell>
        <mxCell id="m51ZHN8KOSUC9soQgLNm-28" style="edgeStyle=orthogonalEdgeStyle;rounded=0;orthogonalLoop=1;jettySize=auto;html=1;entryX=0.5;entryY=0;entryDx=0;entryDy=0;" edge="1" parent="1" source="KD5gaBioyo4awNugm5Q--22" target="m51ZHN8KOSUC9soQgLNm-29">
          <mxGeometry relative="1" as="geometry">
            <mxPoint x="60" y="870.6896551724138" as="targetPoint" />
          </mxGeometry>
        </mxCell>
        <mxCell id="KD5gaBioyo4awNugm5Q--22" value="Allomas(spawn2)" style="rounded=1;whiteSpace=wrap;html=1;fillColor=#647687;fontColor=#ffffff;strokeColor=#314354;arcSize=27;" parent="1" vertex="1">
          <mxGeometry y="420" width="120" height="60" as="geometry" />
        </mxCell>
        <mxCell id="m51ZHN8KOSUC9soQgLNm-11" value="" style="edgeStyle=orthogonalEdgeStyle;rounded=0;orthogonalLoop=1;jettySize=auto;html=1;" edge="1" parent="1" source="m51ZHN8KOSUC9soQgLNm-2" target="m51ZHN8KOSUC9soQgLNm-10">
          <mxGeometry relative="1" as="geometry" />
        </mxCell>
        <mxCell id="m51ZHN8KOSUC9soQgLNm-2" value="&lt;div&gt;&lt;br&gt;&lt;/div&gt;Iskola(Lyedlick)" style="whiteSpace=wrap;html=1;rounded=1;fillColor=#647687;fontColor=#ffffff;strokeColor=#314354;" vertex="1" parent="1">
          <mxGeometry x="-200" y="490" width="120" height="60" as="geometry" />
        </mxCell>
        <mxCell id="m51ZHN8KOSUC9soQgLNm-4" value="Arkad" style="whiteSpace=wrap;html=1;rounded=1;fillColor=#647687;fontColor=#ffffff;strokeColor=#314354;" vertex="1" parent="1">
          <mxGeometry x="200" y="420" width="120" height="60" as="geometry" />
        </mxCell>
        <mxCell id="m51ZHN8KOSUC9soQgLNm-6" value="Baross ut&lt;div&gt;&lt;br&gt;&lt;/div&gt;" style="whiteSpace=wrap;html=1;rounded=1;fillColor=#647687;fontColor=#ffffff;strokeColor=#314354;" vertex="1" parent="1">
          <mxGeometry x="70" y="640" width="120" height="60" as="geometry" />
        </mxCell>
        <mxCell id="m51ZHN8KOSUC9soQgLNm-20" value="" style="edgeStyle=orthogonalEdgeStyle;rounded=0;orthogonalLoop=1;jettySize=auto;html=1;" edge="1" parent="1" source="m51ZHN8KOSUC9soQgLNm-9" target="m51ZHN8KOSUC9soQgLNm-19">
          <mxGeometry relative="1" as="geometry" />
        </mxCell>
        <mxCell id="m51ZHN8KOSUC9soQgLNm-9" value="Allomasi Dohi&lt;div&gt;&lt;br&gt;&lt;/div&gt;" style="rounded=1;whiteSpace=wrap;html=1;fillColor=#647687;fontColor=#ffffff;strokeColor=#314354;" vertex="1" parent="1">
          <mxGeometry x="-175" y="640" width="120" height="60" as="geometry" />
        </mxCell>
        <mxCell id="m51ZHN8KOSUC9soQgLNm-13" value="" style="edgeStyle=orthogonalEdgeStyle;rounded=0;orthogonalLoop=1;jettySize=auto;html=1;" edge="1" parent="1" source="m51ZHN8KOSUC9soQgLNm-10" target="m51ZHN8KOSUC9soQgLNm-12">
          <mxGeometry relative="1" as="geometry" />
        </mxCell>
        <mxCell id="m51ZHN8KOSUC9soQgLNm-15" value="" style="edgeStyle=orthogonalEdgeStyle;rounded=0;orthogonalLoop=1;jettySize=auto;html=1;" edge="1" parent="1" source="m51ZHN8KOSUC9soQgLNm-10" target="m51ZHN8KOSUC9soQgLNm-14">
          <mxGeometry relative="1" as="geometry" />
        </mxCell>
        <mxCell id="m51ZHN8KOSUC9soQgLNm-10" value="Biztosan be akarsz menni suliba?&lt;div&gt;&lt;br/&gt;&lt;/div&gt;" style="whiteSpace=wrap;html=1;fillColor=#647687;strokeColor=#314354;fontColor=#ffffff;rounded=1;" vertex="1" parent="1">
          <mxGeometry x="-400" y="420" width="120" height="60" as="geometry" />
        </mxCell>
        <mxCell id="m51ZHN8KOSUC9soQgLNm-18" style="edgeStyle=orthogonalEdgeStyle;rounded=0;orthogonalLoop=1;jettySize=auto;html=1;entryX=0;entryY=0.25;entryDx=0;entryDy=0;" edge="1" parent="1" source="m51ZHN8KOSUC9soQgLNm-12" target="KD5gaBioyo4awNugm5Q--22">
          <mxGeometry relative="1" as="geometry" />
        </mxCell>
        <mxCell id="m51ZHN8KOSUC9soQgLNm-12" value="Nem" style="whiteSpace=wrap;html=1;fillColor=#cce5ff;strokeColor=#36393d;rounded=1;" vertex="1" parent="1">
          <mxGeometry x="-400" y="280" width="120" height="60" as="geometry" />
        </mxCell>
        <mxCell id="m51ZHN8KOSUC9soQgLNm-14" value="Igen&lt;br&gt;(-40 energia, penz nem no)" style="whiteSpace=wrap;html=1;fillColor=#cce5ff;strokeColor=#36393d;rounded=1;" vertex="1" parent="1">
          <mxGeometry x="-600" y="420" width="120" height="60" as="geometry" />
        </mxCell>
        <mxCell id="m51ZHN8KOSUC9soQgLNm-22" value="" style="edgeStyle=orthogonalEdgeStyle;rounded=0;orthogonalLoop=1;jettySize=auto;html=1;" edge="1" parent="1" source="m51ZHN8KOSUC9soQgLNm-19" target="m51ZHN8KOSUC9soQgLNm-21">
          <mxGeometry relative="1" as="geometry" />
        </mxCell>
        <mxCell id="m51ZHN8KOSUC9soQgLNm-19" value="Mivel nem multal el 18, kotelezo valakit bekuldeni(csak csovesek vannak)&lt;div&gt;&lt;br&gt;&lt;/div&gt;" style="whiteSpace=wrap;html=1;fillColor=#647687;strokeColor=#314354;fontColor=#ffffff;rounded=1;" vertex="1" parent="1">
          <mxGeometry x="-180" y="740" width="120" height="70" as="geometry" />
        </mxCell>
        <mxCell id="m51ZHN8KOSUC9soQgLNm-24" value="" style="edgeStyle=orthogonalEdgeStyle;rounded=0;orthogonalLoop=1;jettySize=auto;html=1;" edge="1" parent="1" source="m51ZHN8KOSUC9soQgLNm-21" target="m51ZHN8KOSUC9soQgLNm-23">
          <mxGeometry relative="1" as="geometry" />
        </mxCell>
        <mxCell id="m51ZHN8KOSUC9soQgLNm-26" style="edgeStyle=orthogonalEdgeStyle;rounded=0;orthogonalLoop=1;jettySize=auto;html=1;exitX=0.5;exitY=1;exitDx=0;exitDy=0;entryX=0.5;entryY=0;entryDx=0;entryDy=0;" edge="1" parent="1" source="m51ZHN8KOSUC9soQgLNm-21" target="m51ZHN8KOSUC9soQgLNm-25">
          <mxGeometry relative="1" as="geometry" />
        </mxCell>
        <mxCell id="m51ZHN8KOSUC9soQgLNm-21" value="Adsz neki pluszban penzt?&lt;div&gt;&lt;br&gt;&lt;/div&gt;" style="whiteSpace=wrap;html=1;fillColor=#647687;strokeColor=#314354;fontColor=#ffffff;rounded=1;" vertex="1" parent="1">
          <mxGeometry x="-240" y="840" width="120" height="60" as="geometry" />
        </mxCell>
        <mxCell id="m51ZHN8KOSUC9soQgLNm-41" style="edgeStyle=orthogonalEdgeStyle;rounded=0;orthogonalLoop=1;jettySize=auto;html=1;entryX=0.5;entryY=0;entryDx=0;entryDy=0;fillColor=#f5f5f5;gradientColor=#b3b3b3;strokeColor=#666666;" edge="1" parent="1" source="m51ZHN8KOSUC9soQgLNm-23" target="m51ZHN8KOSUC9soQgLNm-40">
          <mxGeometry relative="1" as="geometry" />
        </mxCell>
        <mxCell id="m51ZHN8KOSUC9soQgLNm-23" value="Igen" style="whiteSpace=wrap;html=1;fillColor=#cce5ff;strokeColor=#36393d;rounded=1;" vertex="1" parent="1">
          <mxGeometry x="-360" y="950" width="120" height="60" as="geometry" />
        </mxCell>
        <mxCell id="m51ZHN8KOSUC9soQgLNm-25" value="Nem" style="whiteSpace=wrap;html=1;fillColor=#cce5ff;strokeColor=#36393d;rounded=1;" vertex="1" parent="1">
          <mxGeometry x="-140" y="950" width="120" height="60" as="geometry" />
        </mxCell>
        <mxCell id="m51ZHN8KOSUC9soQgLNm-31" style="edgeStyle=orthogonalEdgeStyle;rounded=0;orthogonalLoop=1;jettySize=auto;html=1;entryX=0.5;entryY=0;entryDx=0;entryDy=0;" edge="1" parent="1" source="m51ZHN8KOSUC9soQgLNm-29" target="m51ZHN8KOSUC9soQgLNm-30">
          <mxGeometry relative="1" as="geometry" />
        </mxCell>
        <mxCell id="m51ZHN8KOSUC9soQgLNm-29" value="Felszallnal a Becsbe tarto vonatra" style="rounded=1;whiteSpace=wrap;html=1;fillColor=#647687;strokeColor=#314354;fontColor=#ffffff;" vertex="1" parent="1">
          <mxGeometry x="-20" y="750" width="120" height="60" as="geometry" />
        </mxCell>
        <mxCell id="m51ZHN8KOSUC9soQgLNm-38" style="edgeStyle=orthogonalEdgeStyle;rounded=0;orthogonalLoop=1;jettySize=auto;html=1;entryX=0.5;entryY=0;entryDx=0;entryDy=0;" edge="1" parent="1" source="m51ZHN8KOSUC9soQgLNm-30" target="m51ZHN8KOSUC9soQgLNm-35">
          <mxGeometry relative="1" as="geometry" />
        </mxCell>
        <mxCell id="m51ZHN8KOSUC9soQgLNm-30" value="Van eleg penzed a jegyre?" style="whiteSpace=wrap;html=1;fillColor=#647687;strokeColor=#314354;fontColor=#ffffff;rounded=1;" vertex="1" parent="1">
          <mxGeometry x="60" y="840" width="120" height="60" as="geometry" />
        </mxCell>
        <mxCell id="m51ZHN8KOSUC9soQgLNm-34" value="Igen" style="whiteSpace=wrap;html=1;fillColor=#cce5ff;strokeColor=#36393d;rounded=1;" vertex="1" parent="1">
          <mxGeometry x="10" y="950" width="120" height="60" as="geometry" />
        </mxCell>
        <mxCell id="m51ZHN8KOSUC9soQgLNm-35" value="Nem" style="whiteSpace=wrap;html=1;fillColor=#cce5ff;strokeColor=#36393d;rounded=1;" vertex="1" parent="1">
          <mxGeometry x="170" y="950" width="120" height="60" as="geometry" />
        </mxCell>
        <mxCell id="m51ZHN8KOSUC9soQgLNm-37" style="edgeStyle=orthogonalEdgeStyle;rounded=0;orthogonalLoop=1;jettySize=auto;html=1;entryX=0.502;entryY=0.047;entryDx=0;entryDy=0;entryPerimeter=0;" edge="1" parent="1" source="m51ZHN8KOSUC9soQgLNm-30" target="m51ZHN8KOSUC9soQgLNm-34">
          <mxGeometry relative="1" as="geometry" />
        </mxCell>
        <mxCell id="m51ZHN8KOSUC9soQgLNm-40" value="Nem volt eleg neki, elvette a cigid es kirabolt&lt;br&gt;(-osszes penz, -1 doboz cigi, - 35 energia)" style="whiteSpace=wrap;html=1;fillColor=#647687;strokeColor=#314354;rounded=1;fontColor=#ffffff;" vertex="1" parent="1">
          <mxGeometry x="-360" y="1040" width="130" height="100" as="geometry" />
        </mxCell>
      </root>
    </mxGraphModel>
  </diagram>
</mxfile>
